<svg width="224" height="40" viewBox="0 0 224 40" fill="none" xmlns="http://www.w3.org/2000/svg">
<path d="M0 6C0 2.68629 2.68629 0 6 0H90C93.3137 0 96 2.68629 96 6C96 9.31371 93.3137 12 90 12H6C2.68629 12 0 9.31371 0 6Z" fill="white"/>
<path d="M0 34C0 30.6863 2.68629 28 6 28H135C138.314 28 141 30.6863 141 34C141 37.3137 138.314 40 135 40H6C2.68629 40 0 37.3137 0 34Z" fill="white"/>
<path d="M112 6C112 2.68629 114.686 0 118 0H218C221.314 0 224 2.68629 224 6C224 9.31371 221.314 12 218 12H118C114.686 12 112 9.31371 112 6Z" fill="white"/>
</svg>
