<svg width="826" height="517" viewBox="0 0 826 517" fill="none" xmlns="http://www.w3.org/2000/svg">
<g filter="url(#filter0_dd_14_2211)">
<rect x="38" y="15" width="750" height="439" fill="#DBEAFE" shape-rendering="crispEdges"/>
<path d="M38 15.5853H163.628V454H38V15.5853Z" fill="#BFDBFE"/>
<path d="M53.0754 57.144C53.0754 53.2647 56.4501 50.12 60.6131 50.12H141.015C145.178 50.12 148.553 53.2647 148.553 57.144V57.144C148.553 61.0232 145.178 64.168 141.015 64.168H60.6131C56.4501 64.168 53.0754 61.0232 53.0754 57.144V57.144Z" fill="#93C5FD"/>
<path d="M83.2261 106.312C83.2261 104.372 84.9135 102.8 86.995 102.8H149.809C151.891 102.8 153.578 104.372 153.578 106.312V106.312C153.578 108.252 151.891 109.824 149.809 109.824H86.995C84.9135 109.824 83.2261 108.252 83.2261 106.312V106.312Z" fill="white"/>
<path d="M83.2261 143.773C83.2261 141.834 84.9135 140.261 86.995 140.261H130.337C132.418 140.261 134.106 141.834 134.106 143.773V143.773C134.106 145.713 132.418 147.285 130.337 147.285H86.995C84.9135 147.285 83.2261 145.713 83.2261 143.773V143.773Z" fill="white"/>
<path d="M83.2261 181.235C83.2261 179.295 84.9135 177.723 86.995 177.723H141.015C143.097 177.723 144.784 179.295 144.784 181.235V181.235C144.784 183.174 143.097 184.747 141.015 184.747H86.995C84.9135 184.747 83.2261 183.174 83.2261 181.235V181.235Z" fill="white"/>
<path fill-rule="evenodd" clip-rule="evenodd" d="M63.1256 113.921C67.6355 113.921 71.2915 110.515 71.2915 106.312C71.2915 102.109 67.6355 98.7027 63.1256 98.7027C58.6158 98.7027 54.9598 102.109 54.9598 106.312C54.9598 110.515 58.6158 113.921 63.1256 113.921ZM63.1256 115.677C68.6762 115.677 73.1759 111.484 73.1759 106.312C73.1759 101.14 68.6762 96.9467 63.1256 96.9467C57.575 96.9467 53.0754 101.14 53.0754 106.312C53.0754 111.484 57.575 115.677 63.1256 115.677Z" fill="#93C5FD"/>
<path d="M203.829 57.144C203.829 54.5578 206.079 52.4613 208.854 52.4613H281.719C284.494 52.4613 286.744 54.5578 286.744 57.144V57.144C286.744 59.7301 284.494 61.8266 281.719 61.8266H208.854C206.079 61.8266 203.829 59.7301 203.829 57.144V57.144Z" fill="#BFDBFE"/>
<path fill-rule="evenodd" clip-rule="evenodd" d="M337.309 245.949C337.346 242.611 340.192 239.768 343.85 239.768C346.096 239.768 347.748 240.804 348.802 241.779C349.095 242.05 349.347 242.321 349.558 242.571C349.769 242.321 350.021 242.05 350.314 241.779C351.368 240.804 353.02 239.768 355.265 239.768C358.924 239.768 361.77 242.611 361.806 245.949L361.806 245.95C361.876 252.461 356.261 256.966 350.618 260.536C350.305 260.734 349.936 260.84 349.558 260.84C349.18 260.84 348.81 260.734 348.498 260.536C342.854 256.966 337.239 252.461 337.309 245.95L337.309 245.949ZM350.399 244.553C350.239 244.849 349.914 245.036 349.558 245.036C349.202 245.036 348.876 244.849 348.716 244.553C348.716 244.552 348.716 244.552 348.715 244.551C348.714 244.549 348.712 244.545 348.709 244.541C348.708 244.538 348.706 244.535 348.704 244.532C348.694 244.513 348.676 244.483 348.652 244.443C348.602 244.363 348.525 244.243 348.421 244.097C348.21 243.804 347.894 243.414 347.474 243.025C346.63 242.244 345.428 241.524 343.85 241.524C341.295 241.524 339.22 243.525 339.193 245.967M350.399 244.553C350.4 244.552 350.4 244.552 350.401 244.551C350.402 244.548 350.406 244.541 350.411 244.532C350.422 244.513 350.439 244.483 350.464 244.443C350.513 244.363 350.59 244.243 350.695 244.097C350.906 243.804 351.222 243.414 351.642 243.025C352.486 242.244 353.688 241.524 355.265 241.524C357.821 241.524 359.895 243.525 359.922 245.967C359.981 251.454 355.252 255.482 349.559 259.083L349.558 259.084L349.557 259.083C343.863 255.482 339.134 251.454 339.193 245.967" fill="white"/>
<path d="M203.829 250.304C203.829 247.718 206.079 245.621 208.854 245.621H242.774C245.549 245.621 247.799 247.718 247.799 250.304V250.304C247.799 252.89 245.549 254.987 242.774 254.987H208.854C206.079 254.987 203.829 252.89 203.829 250.304V250.304Z" fill="#BFDBFE"/>
<path d="M257.849 250.304C257.849 247.718 260.099 245.621 262.874 245.621H319.407C322.182 245.621 324.432 247.718 324.432 250.304V250.304C324.432 252.89 322.182 254.987 319.407 254.987H262.874C260.099 254.987 257.849 252.89 257.849 250.304V250.304Z" fill="#BFDBFE"/>
<path d="M203.829 295.96C203.829 294.02 205.517 292.448 207.598 292.448H260.362C262.443 292.448 264.131 294.02 264.131 295.96V295.96C264.131 297.9 262.443 299.472 260.362 299.472H207.598C205.517 299.472 203.829 297.9 203.829 295.96V295.96Z" fill="white"/>
<path d="M203.829 312.349C203.829 310.41 205.517 308.837 207.598 308.837H288.628C290.71 308.837 292.397 310.41 292.397 312.349V312.349C292.397 314.289 290.71 315.861 288.628 315.861H207.598C205.517 315.861 203.829 314.289 203.829 312.349V312.349Z" fill="white"/>
<path d="M274.181 295.96C274.181 294.02 275.868 292.448 277.95 292.448H340.764C342.845 292.448 344.533 294.02 344.533 295.96V295.96C344.533 297.9 342.845 299.472 340.764 299.472H277.95C275.868 299.472 274.181 297.9 274.181 295.96V295.96Z" fill="white"/>
<path d="M203.829 102.8C203.829 100.86 205.517 99.288 207.598 99.288H260.362C262.443 99.288 264.131 100.86 264.131 102.8V102.8C264.131 104.74 262.443 106.312 260.362 106.312H207.598C205.517 106.312 203.829 104.74 203.829 102.8V102.8Z" fill="white"/>
<path d="M203.829 119.189C203.829 117.25 205.517 115.677 207.598 115.677H337.623C339.705 115.677 341.392 117.25 341.392 119.189V119.189C341.392 121.129 339.705 122.701 337.623 122.701H207.598C205.517 122.701 203.829 121.129 203.829 119.189V119.189Z" fill="white"/>
<path d="M274.181 102.8C274.181 100.86 275.868 99.288 277.95 99.288H421.166C423.247 99.288 424.935 100.86 424.935 102.8V102.8C424.935 104.74 423.247 106.312 421.166 106.312H277.95C275.868 106.312 274.181 104.74 274.181 102.8V102.8Z" fill="white"/>
<path fill-rule="evenodd" clip-rule="evenodd" d="M71.9196 136.164H55.5879V151.383H71.9196V136.164ZM53.7035 134.408V153.139H73.804V134.408H53.7035Z" fill="#60A5FA"/>
<g clip-path="url(#clip0_14_2211)">
<rect x="473.302" y="57.144" width="125.628" height="160.381" rx="20" fill="white"/>
<path d="M556.986 217.664C556.986 258.248 521.972 291.148 478.781 291.148C435.589 291.148 400.576 258.248 400.576 217.664C400.576 177.08 435.589 144.18 478.781 144.18C521.972 144.18 556.986 177.08 556.986 217.664Z" fill="#FACC15"/>
<path fill-rule="evenodd" clip-rule="evenodd" d="M616.37 119.605L575.507 81.5272L534.644 119.605L575.507 157.684L616.37 119.605ZM575.507 78.2161L531.09 119.605L575.507 160.995L619.923 119.605L575.507 78.2161Z" fill="#BFDBFE"/>
</g>
<path d="M63.7537 173.04L73.804 189.261H53.7035L63.7537 173.04Z" fill="#93C5FD"/>
<rect x="619.03" y="57.144" width="125.628" height="118.237" rx="20" fill="white"/>
<path fill-rule="evenodd" clip-rule="evenodd" d="M675.543 145.305C688.067 145.305 698.135 135.931 698.135 124.465C698.135 113 688.067 103.626 675.543 103.626C663.018 103.626 652.95 113 652.95 124.465C652.95 135.931 663.018 145.305 675.543 145.305ZM675.543 151.158C691.489 151.158 704.417 139.207 704.417 124.465C704.417 109.723 691.489 97.7722 675.543 97.7722C659.596 97.7722 646.668 109.723 646.668 124.465C646.668 139.207 659.596 151.158 675.543 151.158Z" fill="#BFDBFE"/>
<path d="M688.666 116.016L696.972 87.1275L719.667 108.276L688.666 116.016Z" fill="#FACC15"/>
<g clip-path="url(#clip1_14_2211)">
<rect x="473.302" y="236.256" width="125.628" height="179.112" rx="20" fill="white"/>
<path fill-rule="evenodd" clip-rule="evenodd" d="M591.078 438.196C626.29 438.196 654.834 411.597 654.834 378.785C654.834 345.973 626.29 319.373 591.078 319.373C555.866 319.373 527.322 345.973 527.322 378.785C527.322 411.597 555.866 438.196 591.078 438.196ZM591.078 444.049C629.759 444.049 661.116 414.829 661.116 378.785C661.116 342.74 629.759 313.52 591.078 313.52C552.397 313.52 521.04 342.74 521.04 378.785C521.04 414.829 552.397 444.049 591.078 444.049Z" fill="#FACC15"/>
<path d="M539.256 289.654C539.256 300.718 529.554 309.688 517.585 309.688C505.617 309.688 495.915 300.718 495.915 289.654C495.915 278.589 505.617 269.62 517.585 269.62C529.554 269.62 539.256 278.589 539.256 289.654Z" fill="#BFDBFE"/>
<path fill-rule="evenodd" clip-rule="evenodd" d="M517.585 307.932C528.527 307.932 537.372 299.735 537.372 289.654C537.372 279.572 528.527 271.376 517.585 271.376C506.644 271.376 497.799 279.572 497.799 289.654C497.799 299.735 506.644 307.932 517.585 307.932ZM517.585 309.688C529.554 309.688 539.256 300.718 539.256 289.654C539.256 278.589 529.554 269.62 517.585 269.62C505.617 269.62 495.915 278.589 495.915 289.654C495.915 300.718 505.617 309.688 517.585 309.688Z" fill="#BFDBFE"/>
</g>
<g clip-path="url(#clip2_14_2211)">
<rect x="619.03" y="194.112" width="125.628" height="200.184" rx="20" fill="white"/>
<path d="M773.553 338.397C773.553 352.782 761.179 364.444 745.915 364.444C730.65 364.444 718.276 352.782 718.276 338.397C718.276 324.011 730.65 312.349 745.915 312.349C761.179 312.349 773.553 324.011 773.553 338.397Z" fill="white"/>
<path fill-rule="evenodd" clip-rule="evenodd" d="M745.915 362.688C760.118 362.688 771.668 351.831 771.668 338.397C771.668 324.962 760.118 314.105 745.915 314.105C731.711 314.105 720.161 324.962 720.161 338.397C720.161 351.831 731.711 362.688 745.915 362.688ZM745.915 364.444C761.179 364.444 773.553 352.782 773.553 338.397C773.553 324.011 761.179 312.349 745.915 312.349C730.65 312.349 718.276 324.011 718.276 338.397C718.276 352.782 730.65 364.444 745.915 364.444Z" fill="#BFDBFE"/>
<path d="M723.301 264.645C723.301 283.879 706.709 299.472 686.241 299.472C665.773 299.472 649.181 283.879 649.181 264.645C649.181 245.41 665.773 229.817 686.241 229.817C706.709 229.817 723.301 245.41 723.301 264.645Z" fill="#BFDBFE"/>
<path d="M642.271 331.665L644.044 336.416L649.44 336.519L645.139 339.558L646.702 344.372L642.271 341.499L637.841 344.372L639.404 339.558L635.103 336.519L640.499 336.416L642.271 331.665Z" fill="#FACC15"/>
<path d="M668.025 331.665L669.797 336.416L675.194 336.519L670.893 339.558L672.456 344.372L668.025 341.499L663.595 344.372L665.158 339.558L660.856 336.519L666.253 336.416L668.025 331.665Z" fill="#FACC15"/>
<path d="M693.779 331.665L695.551 336.416L700.948 336.519L696.646 339.558L698.209 344.372L693.779 341.499L689.348 344.372L690.911 339.558L686.61 336.519L692.007 336.416L693.779 331.665Z" fill="#FACC15"/>
<path d="M719.533 331.665L721.305 336.416L726.701 336.519L722.4 339.558L723.963 344.372L719.533 341.499L715.102 344.372L716.665 339.558L712.364 336.519L717.76 336.416L719.533 331.665Z" fill="#FACC15"/>
<path d="M745.286 331.665L747.059 336.416L752.455 336.519L748.154 339.558L749.717 344.372L745.286 341.499L740.856 344.372L742.419 339.558L738.118 336.519L743.514 336.416L745.286 331.665Z" fill="#FACC15"/>
</g>
</g>
<defs>
<filter id="filter0_dd_14_2211" x="0" y="0" width="826" height="517" filterUnits="userSpaceOnUse" color-interpolation-filters="sRGB">
<feFlood flood-opacity="0" result="BackgroundImageFix"/>
<feColorMatrix in="SourceAlpha" type="matrix" values="0 0 0 0 0 0 0 0 0 0 0 0 0 0 0 0 0 0 127 0" result="hardAlpha"/>
<feOffset/>
<feGaussianBlur stdDeviation="7.5"/>
<feComposite in2="hardAlpha" operator="out"/>
<feColorMatrix type="matrix" values="0 0 0 0 0 0 0 0 0 0 0 0 0 0 0 0 0 0 0.07 0"/>
<feBlend mode="normal" in2="BackgroundImageFix" result="effect1_dropShadow_14_2211"/>
<feColorMatrix in="SourceAlpha" type="matrix" values="0 0 0 0 0 0 0 0 0 0 0 0 0 0 0 0 0 0 127 0" result="hardAlpha"/>
<feMorphology radius="12" operator="erode" in="SourceAlpha" result="effect2_dropShadow_14_2211"/>
<feOffset dy="25"/>
<feGaussianBlur stdDeviation="25"/>
<feColorMatrix type="matrix" values="0 0 0 0 0 0 0 0 0 0 0 0 0 0 0 0 0 0 0.25 0"/>
<feBlend mode="normal" in2="effect1_dropShadow_14_2211" result="effect2_dropShadow_14_2211"/>
<feBlend mode="normal" in="SourceGraphic" in2="effect2_dropShadow_14_2211" result="shape"/>
</filter>
<clipPath id="clip0_14_2211">
<rect x="473.302" y="57.144" width="125.628" height="160.381" rx="20" fill="white"/>
</clipPath>
<clipPath id="clip1_14_2211">
<rect x="473.302" y="236.256" width="125.628" height="179.112" rx="20" fill="white"/>
</clipPath>
<clipPath id="clip2_14_2211">
<rect x="619.03" y="194.112" width="125.628" height="200.184" rx="20" fill="white"/>
</clipPath>
</defs>
</svg>
