<svg width="1100" height="661" viewBox="0 0 1100 661" fill="none" xmlns="http://www.w3.org/2000/svg">
<rect width="1100" height="661" fill="#DBEAFE"/>
<path d="M0 0.881348H184.255V661H0V0.881348Z" fill="#BFDBFE"/>
<path d="M22.1105 63.4559C22.1105 57.6149 27.0602 52.8799 33.1658 52.8799H151.089C157.194 52.8799 162.144 57.6149 162.144 63.4559C162.144 69.2969 157.194 74.0319 151.089 74.0319H33.1658C27.0601 74.0319 22.1105 69.2969 22.1105 63.4559Z" fill="#93C5FD"/>
<path d="M66.3317 137.488C66.3317 134.567 68.8065 132.2 71.8593 132.2H163.987C167.039 132.2 169.514 134.567 169.514 137.488C169.514 140.408 167.039 142.776 163.987 142.776H71.8593C68.8065 142.776 66.3317 140.408 66.3317 137.488Z" fill="white"/>
<path d="M66.3317 193.893C66.3317 190.973 68.8065 188.605 71.8593 188.605H135.427C138.48 188.605 140.955 190.973 140.955 193.893C140.955 196.814 138.48 199.181 135.427 199.181H71.8593C68.8065 199.181 66.3317 196.814 66.3317 193.893Z" fill="white"/>
<path d="M66.3317 250.299C66.3317 247.378 68.8065 245.011 71.8593 245.011H151.089C154.142 245.011 156.616 247.378 156.616 250.299C156.616 253.219 154.142 255.587 151.089 255.587H71.8593C68.8065 255.587 66.3317 253.219 66.3317 250.299Z" fill="white"/>
<path fill-rule="evenodd" clip-rule="evenodd" d="M36.8509 148.945C43.4654 148.945 48.8275 143.816 48.8275 137.488C48.8275 131.16 43.4654 126.031 36.8509 126.031C30.2364 126.031 24.8744 131.16 24.8744 137.488C24.8744 143.816 30.2364 148.945 36.8509 148.945ZM36.8509 151.589C44.9918 151.589 51.5913 145.276 51.5913 137.488C51.5913 129.7 44.9918 123.387 36.8509 123.387C28.71 123.387 22.1105 129.7 22.1105 137.488C22.1105 145.276 28.71 151.589 36.8509 151.589Z" fill="#93C5FD"/>
<path d="M243.216 63.4559C243.216 59.562 246.516 56.4053 250.586 56.4053H357.454C361.524 56.4053 364.824 59.562 364.824 63.4559C364.824 67.3499 361.524 70.5066 357.454 70.5066H250.586C246.516 70.5066 243.216 67.3499 243.216 63.4559Z" fill="#BFDBFE"/>
<path fill-rule="evenodd" clip-rule="evenodd" d="M438.987 347.74C439.04 342.713 443.215 338.432 448.58 338.432C451.874 338.432 454.296 339.992 455.842 341.46C456.273 341.869 456.642 342.277 456.951 342.653C457.261 342.277 457.63 341.869 458.061 341.46C459.606 339.992 462.029 338.432 465.322 338.432C470.688 338.432 474.862 342.713 474.916 347.74L474.916 347.74C475.018 357.544 466.783 364.327 458.506 369.702C458.048 370.001 457.506 370.16 456.951 370.16C456.397 370.16 455.855 370.001 455.397 369.702C447.119 364.327 438.883 357.544 438.987 347.74L438.987 347.74ZM458.186 345.637C457.951 346.083 457.474 346.364 456.951 346.364C456.429 346.364 455.952 346.083 455.717 345.637C455.717 345.636 455.716 345.635 455.715 345.633C455.714 345.63 455.711 345.625 455.707 345.618C455.705 345.614 455.703 345.61 455.7 345.605C455.684 345.577 455.658 345.532 455.622 345.472C455.55 345.351 455.437 345.171 455.283 344.951C454.975 344.51 454.511 343.921 453.895 343.336C452.657 342.161 450.894 341.076 448.58 341.076C444.832 341.076 441.79 344.09 441.75 347.766M458.186 345.637C458.186 345.636 458.187 345.635 458.187 345.633C458.19 345.629 458.195 345.619 458.203 345.605C458.218 345.577 458.244 345.532 458.28 345.472C458.353 345.351 458.466 345.171 458.619 344.951C458.928 344.51 459.392 343.921 460.008 343.336C461.246 342.161 463.009 341.076 465.322 341.076C469.07 341.076 472.113 344.09 472.152 347.766C472.239 356.028 465.303 362.093 456.953 367.515L456.951 367.516L456.95 367.515C448.599 362.093 441.664 356.028 441.75 347.767" fill="white"/>
<path d="M243.216 354.296C243.216 350.402 246.516 347.245 250.586 347.245H300.335C304.405 347.245 307.705 350.402 307.705 354.296C307.705 358.19 304.405 361.347 300.335 361.347H250.586C246.516 361.347 243.216 358.19 243.216 354.296Z" fill="#BFDBFE"/>
<path d="M322.446 354.296C322.446 350.402 325.745 347.245 329.816 347.245H412.73C416.801 347.245 420.101 350.402 420.101 354.296C420.101 358.19 416.801 361.347 412.73 361.347H329.816C325.745 361.347 322.446 358.19 322.446 354.296Z" fill="#BFDBFE"/>
<path d="M243.216 423.04C243.216 420.119 245.691 417.752 248.744 417.752H326.131C329.183 417.752 331.658 420.119 331.658 423.04C331.658 425.96 329.183 428.328 326.131 428.328H248.744C245.691 428.328 243.216 425.96 243.216 423.04Z" fill="white"/>
<path d="M243.216 447.717C243.216 444.797 245.691 442.429 248.744 442.429H367.588C370.641 442.429 373.116 444.797 373.116 447.717C373.116 450.638 370.641 453.005 367.588 453.005H248.744C245.691 453.005 243.216 450.638 243.216 447.717Z" fill="white"/>
<path d="M346.399 423.04C346.399 420.119 348.873 417.752 351.926 417.752H444.054C447.106 417.752 449.581 420.119 449.581 423.04C449.581 425.96 447.106 428.328 444.054 428.328H351.926C348.873 428.328 346.399 425.96 346.399 423.04Z" fill="white"/>
<path d="M243.216 132.2C243.216 129.28 245.691 126.912 248.744 126.912H326.131C329.183 126.912 331.658 129.28 331.658 132.2C331.658 135.121 329.183 137.488 326.131 137.488H248.744C245.691 137.488 243.216 135.121 243.216 132.2Z" fill="white"/>
<path d="M243.216 156.877C243.216 153.957 245.691 151.589 248.744 151.589H439.447C442.5 151.589 444.975 153.957 444.975 156.877C444.975 159.798 442.5 162.165 439.447 162.165H248.744C245.691 162.165 243.216 159.798 243.216 156.877Z" fill="white"/>
<path d="M346.399 132.2C346.399 129.28 348.873 126.912 351.926 126.912H561.977C565.029 126.912 567.504 129.28 567.504 132.2C567.504 135.121 565.029 137.488 561.977 137.488H351.926C348.873 137.488 346.399 135.121 346.399 132.2Z" fill="white"/>
<path fill-rule="evenodd" clip-rule="evenodd" d="M49.7487 182.436H25.7956V205.351H49.7487V182.436ZM23.0318 179.792V207.995H52.5125V179.792H23.0318Z" fill="#60A5FA"/>
<g clip-path="url(#clip0_14_201)">
<rect x="638.442" y="63.4561" width="184.255" height="241.485" rx="20" fill="white"/>
<path d="M761.179 305.15C761.179 366.257 709.826 415.794 646.479 415.794C583.131 415.794 531.778 366.257 531.778 305.15C531.778 244.043 583.131 194.506 646.479 194.506C709.826 194.506 761.179 244.043 761.179 305.15Z" fill="#FACC15"/>
<path fill-rule="evenodd" clip-rule="evenodd" d="M848.276 157.504L788.343 100.17L728.411 157.504L788.343 214.838L848.276 157.504ZM788.343 95.1841L723.199 157.504L788.343 219.823L853.487 157.504L788.343 95.1841Z" fill="#BFDBFE"/>
</g>
<path d="M37.7722 237.96L52.5125 262.384H23.0318L37.7722 237.96Z" fill="#93C5FD"/>
<rect x="852.178" y="63.4561" width="184.255" height="178.029" rx="20" fill="white"/>
<path fill-rule="evenodd" clip-rule="evenodd" d="M935.062 196.199C953.432 196.199 968.199 182.085 968.199 164.821C968.199 147.558 953.432 133.443 935.062 133.443C916.693 133.443 901.926 147.558 901.926 164.821C901.926 182.085 916.693 196.199 935.062 196.199ZM935.062 205.013C958.451 205.013 977.411 187.018 977.411 164.821C977.411 142.624 958.451 124.63 935.062 124.63C911.674 124.63 892.714 142.624 892.714 164.821C892.714 187.018 911.674 205.013 935.062 205.013Z" fill="#BFDBFE"/>
<path d="M954.31 152.1L966.493 108.602L999.778 140.445L954.31 152.1Z" fill="#FACC15"/>
<g clip-path="url(#clip1_14_201)">
<rect x="638.442" y="333.144" width="184.255" height="269.688" rx="20" fill="white"/>
<path fill-rule="evenodd" clip-rule="evenodd" d="M811.181 637.204C862.825 637.204 904.69 597.153 904.69 547.749C904.69 498.344 862.825 458.293 811.181 458.293C759.537 458.293 717.672 498.344 717.672 547.749C717.672 597.153 759.537 637.204 811.181 637.204ZM811.181 646.017C867.913 646.017 913.903 602.021 913.903 547.749C913.903 493.476 867.913 449.48 811.181 449.48C754.449 449.48 708.459 493.476 708.459 547.749C708.459 602.021 754.449 646.017 811.181 646.017Z" fill="#FACC15"/>
<path d="M735.176 413.545C735.176 430.205 720.946 443.71 703.392 443.71C685.838 443.71 671.608 430.205 671.608 413.545C671.608 396.885 685.838 383.38 703.392 383.38C720.946 383.38 735.176 396.885 735.176 413.545Z" fill="#BFDBFE"/>
<path fill-rule="evenodd" clip-rule="evenodd" d="M703.392 441.066C719.44 441.066 732.412 428.724 732.412 413.545C732.412 398.365 719.44 386.024 703.392 386.024C687.344 386.024 674.372 398.365 674.372 413.545C674.372 428.724 687.344 441.066 703.392 441.066ZM703.392 443.71C720.946 443.71 735.176 430.205 735.176 413.545C735.176 396.885 720.946 383.38 703.392 383.38C685.838 383.38 671.608 396.885 671.608 413.545C671.608 430.205 685.838 443.71 703.392 443.71Z" fill="#BFDBFE"/>
</g>
<g clip-path="url(#clip2_14_201)">
<rect x="852.178" y="269.688" width="184.255" height="301.416" rx="20" fill="white"/>
<path d="M1078.81 486.937C1078.81 508.597 1060.66 526.156 1038.27 526.156C1015.89 526.156 997.739 508.597 997.739 486.937C997.739 465.276 1015.89 447.717 1038.27 447.717C1060.66 447.717 1078.81 465.276 1078.81 486.937Z" fill="white"/>
<path fill-rule="evenodd" clip-rule="evenodd" d="M1038.27 523.512C1059.11 523.512 1076.05 507.165 1076.05 486.937C1076.05 466.708 1059.11 450.361 1038.27 450.361C1017.44 450.361 1000.5 466.708 1000.5 486.937C1000.5 507.165 1017.44 523.512 1038.27 523.512ZM1038.27 526.156C1060.66 526.156 1078.81 508.597 1078.81 486.937C1078.81 465.276 1060.66 447.717 1038.27 447.717C1015.89 447.717 997.739 465.276 997.739 486.937C997.739 508.597 1015.89 526.156 1038.27 526.156Z" fill="#BFDBFE"/>
<path d="M1005.11 375.889C1005.11 404.85 980.773 428.328 950.754 428.328C920.734 428.328 896.399 404.85 896.399 375.889C896.399 346.927 920.734 323.449 950.754 323.449C980.773 323.449 1005.11 346.927 1005.11 375.889Z" fill="#BFDBFE"/>
<path d="M886.265 476.801L888.864 483.955L896.779 484.109L890.47 488.685L892.763 495.933L886.265 491.608L879.767 495.933L882.059 488.685L875.751 484.109L883.665 483.955L886.265 476.801Z" fill="#FACC15"/>
<path d="M924.037 476.801L926.636 483.955L934.551 484.109L928.243 488.685L930.535 495.933L924.037 491.608L917.539 495.933L919.831 488.685L913.523 484.109L921.438 483.955L924.037 476.801Z" fill="#FACC15"/>
<path d="M961.809 476.801L964.408 483.955L972.323 484.109L966.015 488.685L968.307 495.933L961.809 491.608L955.311 495.933L957.603 488.685L951.295 484.109L959.21 483.955L961.809 476.801Z" fill="#FACC15"/>
<path d="M999.581 476.801L1002.18 483.955L1010.1 484.109L1003.79 488.685L1006.08 495.933L999.581 491.608L993.083 495.933L995.376 488.685L989.067 484.109L996.982 483.955L999.581 476.801Z" fill="#FACC15"/>
<path d="M1037.35 476.801L1039.95 483.955L1047.87 484.109L1041.56 488.685L1043.85 495.933L1037.35 491.608L1030.86 495.933L1033.15 488.685L1026.84 484.109L1034.75 483.955L1037.35 476.801Z" fill="#FACC15"/>
</g>
<defs>
<clipPath id="clip0_14_201">
<rect x="638.442" y="63.4561" width="184.255" height="241.485" rx="20" fill="white"/>
</clipPath>
<clipPath id="clip1_14_201">
<rect x="638.442" y="333.144" width="184.255" height="269.688" rx="20" fill="white"/>
</clipPath>
<clipPath id="clip2_14_201">
<rect x="852.178" y="269.688" width="184.255" height="301.416" rx="20" fill="white"/>
</clipPath>
</defs>
</svg>
