<svg width="25" height="24" viewBox="0 0 25 24" fill="none" xmlns="http://www.w3.org/2000/svg">
<path d="M15.4046 7.97205L6.36663 17.0101L5.77563 19.0261L7.75063 18.4551L16.8186 9.38705L15.4046 7.97205ZM16.9466 6.43005L18.3606 7.84405L19.6786 6.52605C19.7724 6.43229 19.825 6.30514 19.825 6.17255C19.825 6.03997 19.7724 5.91282 19.6786 5.81905L18.9706 5.11205C18.8769 5.01832 18.7497 4.96566 18.6171 4.96566C18.4845 4.96566 18.3574 5.01832 18.2636 5.11205L16.9476 6.43005H16.9466ZM20.3856 3.69805L21.0926 4.40505C21.5613 4.87387 21.8246 5.50964 21.8246 6.17255C21.8246 6.83546 21.5613 7.47123 21.0926 7.94005L8.80063 20.2331L4.58063 21.4531C4.40862 21.5026 4.22645 21.5052 4.05313 21.4603C3.87982 21.4155 3.72172 21.3249 3.59534 21.1982C3.46896 21.0714 3.37893 20.913 3.33466 20.7395C3.29038 20.5661 3.29348 20.3839 3.34363 20.2121L4.59163 15.9571L16.8516 3.69705C17.3205 3.22838 17.9562 2.96509 18.6191 2.96509C19.282 2.96509 19.9178 3.22838 20.3866 3.69705L20.3856 3.69805Z" fill="#475569"/>
</svg>
