<svg width="17" height="16" viewBox="0 0 17 16" fill="none" xmlns="http://www.w3.org/2000/svg">
<path d="M8.66661 13.3334C10.0811 13.3334 11.4376 12.7715 12.4378 11.7713C13.438 10.7711 13.9999 9.41453 13.9999 8.00004C13.9999 6.58555 13.438 5.229 12.4378 4.2288C11.4376 3.22861 10.0811 2.66671 8.66661 2.66671C7.25212 2.66671 5.89556 3.22861 4.89537 4.2288C3.89518 5.229 3.33327 6.58555 3.33327 8.00004C3.33327 9.41453 3.89518 10.7711 4.89537 11.7713C5.89556 12.7715 7.25212 13.3334 8.66661 13.3334V13.3334ZM8.66661 14.6667C4.98461 14.6667 1.99994 11.682 1.99994 8.00004C1.99994 4.31804 4.98461 1.33337 8.66661 1.33337C12.3486 1.33337 15.3333 4.31804 15.3333 8.00004C15.3333 11.682 12.3486 14.6667 8.66661 14.6667Z" fill="#22C55E"/>
</svg>
