<svg width="25" height="24" viewBox="0 0 25 24" fill="none" xmlns="http://www.w3.org/2000/svg">
<path d="M16.4193 10.657L12.4693 6.70704C12.2872 6.51844 12.1864 6.26584 12.1886 6.00364C12.1909 5.74144 12.2961 5.49063 12.4815 5.30522C12.6669 5.11981 12.9177 5.01465 13.1799 5.01237C13.4421 5.01009 13.6947 5.11088 13.8833 5.29304L19.5403 10.95C19.6335 11.0427 19.7074 11.1529 19.7579 11.2742C19.8084 11.3955 19.8343 11.5256 19.8343 11.657C19.8343 11.7884 19.8084 11.9186 19.7579 12.0399C19.7074 12.1612 19.6335 12.2714 19.5403 12.364L13.8833 18.021C13.7911 18.1166 13.6807 18.1927 13.5587 18.2451C13.4367 18.2976 13.3055 18.3251 13.1727 18.3263C13.0399 18.3274 12.9083 18.3021 12.7854 18.2519C12.6625 18.2016 12.5508 18.1273 12.4569 18.0334C12.363 17.9395 12.2888 17.8279 12.2385 17.705C12.1882 17.5821 12.1629 17.4504 12.1641 17.3176C12.1652 17.1849 12.1928 17.0536 12.2452 16.9316C12.2976 16.8096 12.3738 16.6993 12.4693 16.607L16.4193 12.657H6.83331C6.5681 12.657 6.31374 12.5517 6.12621 12.3641C5.93867 12.1766 5.83331 11.9223 5.83331 11.657C5.83331 11.3918 5.93867 11.1375 6.12621 10.9499C6.31374 10.7624 6.5681 10.657 6.83331 10.657H16.4193V10.657Z" fill="#2563EB"/>
</svg>
