<svg width="352" height="96" viewBox="0 0 352 96" fill="none" xmlns="http://www.w3.org/2000/svg">
<path d="M224 48C224 74.5097 202.51 96 176 96C149.49 96 128 74.5097 128 48C128 21.4903 149.49 0 176 0C202.51 0 224 21.4903 224 48Z" fill="white"/>
<path fill-rule="evenodd" clip-rule="evenodd" d="M176 93C200.853 93 221 72.8528 221 48C221 23.1472 200.853 3 176 3C151.147 3 131 23.1472 131 48C131 72.8528 151.147 93 176 93ZM176 96C202.51 96 224 74.5097 224 48C224 21.4903 202.51 0 176 0C149.49 0 128 21.4903 128 48C128 74.5097 149.49 96 176 96Z" fill="#BFDBFE"/>
<path d="M352 48C352 74.5097 330.51 96 304 96C277.49 96 256 74.5097 256 48C256 21.4903 277.49 0 304 0C330.51 0 352 21.4903 352 48Z" fill="#BFDBFE"/>
<path fill-rule="evenodd" clip-rule="evenodd" d="M304 93C328.853 93 349 72.8528 349 48C349 23.1472 328.853 3 304 3C279.147 3 259 23.1472 259 48C259 72.8528 279.147 93 304 93ZM304 96C330.51 96 352 74.5097 352 48C352 21.4903 330.51 0 304 0C277.49 0 256 21.4903 256 48C256 74.5097 277.49 96 304 96Z" fill="white"/>
<path d="M96 48C96 74.5097 74.5097 96 48 96C21.4903 96 0 74.5097 0 48C0 21.4903 21.4903 0 48 0C74.5097 0 96 21.4903 96 48Z" fill="#FACC15"/>
<path fill-rule="evenodd" clip-rule="evenodd" d="M48 93C72.8528 93 93 72.8528 93 48C93 23.1472 72.8528 3 48 3C23.1472 3 3 23.1472 3 48C3 72.8528 23.1472 93 48 93ZM48 96C74.5097 96 96 74.5097 96 48C96 21.4903 74.5097 0 48 0C21.4903 0 0 21.4903 0 48C0 74.5097 21.4903 96 48 96Z" fill="white"/>
</svg>
