<svg width="286" height="48" viewBox="0 0 286 48" fill="none" xmlns="http://www.w3.org/2000/svg">
<path fill-rule="evenodd" clip-rule="evenodd" d="M242.5 16.5606C242.559 10.8568 247.09 6 252.914 6C256.489 6 259.118 7.76949 260.796 9.43555C261.263 9.89944 261.664 10.3622 262 10.7888C262.336 10.3622 262.737 9.89944 263.204 9.43555C264.882 7.76949 267.511 6 271.086 6C276.91 6 281.441 10.8568 281.5 16.5606L281.5 16.561C281.611 27.6855 272.672 35.3816 263.687 41.4805C263.19 41.8191 262.602 42.0001 262 42.0001C261.398 42.0001 260.81 41.8191 260.312 41.4805C251.327 35.3817 242.388 27.6855 242.5 16.5608L242.5 16.5606ZM263.34 14.1745C263.085 14.6805 262.567 15 262 15C261.433 15 260.915 14.6806 260.66 14.1746C260.66 14.174 260.659 14.1728 260.658 14.171C260.657 14.1674 260.654 14.1616 260.649 14.1536C260.647 14.1493 260.644 14.1445 260.642 14.139C260.625 14.1074 260.597 14.0559 260.557 13.9874C260.479 13.8502 260.356 13.6458 260.189 13.3966C259.854 12.8959 259.351 12.2283 258.682 11.5645C257.339 10.2305 255.425 9 252.914 9C248.845 9 245.543 12.4193 245.5 16.591M263.34 14.1745C263.34 14.1739 263.341 14.1727 263.342 14.171C263.344 14.1656 263.35 14.1548 263.358 14.139C263.375 14.1074 263.403 14.0559 263.443 13.9874C263.521 13.8502 263.644 13.6458 263.811 13.3966C264.146 12.8959 264.649 12.2283 265.318 11.5645C266.661 10.2305 268.575 9 271.086 9C275.155 9 278.457 12.4193 278.5 16.5909C278.594 25.9652 271.065 32.847 262.001 38.9992L262 39.0001L261.999 38.9992C252.934 32.847 245.406 25.9654 245.5 16.5913" fill="white"/>
<path d="M0 24C0 19.5817 3.58172 16 8 16H62C66.4183 16 70 19.5817 70 24C70 28.4183 66.4183 32 62 32H8C3.58172 32 0 28.4183 0 24Z" fill="#BFDBFE"/>
<path d="M86 24C86 19.5817 89.5817 16 94 16H184C188.418 16 192 19.5817 192 24C192 28.4183 188.418 32 184 32H94C89.5817 32 86 28.4183 86 24Z" fill="#BFDBFE"/>
</svg>
